<?xml version="1.0" encoding="utf-8"?>
<!-- Generator: Adobe Illustrator 26.2.1, SVG Export Plug-In . SVG Version: 6.00 Build 0)  -->
<svg version="1.1" id="Layer_1" xmlns="http://www.w3.org/2000/svg" xmlns:xlink="http://www.w3.org/1999/xlink" x="0px" y="0px"
	 width="332px" height="426px" viewBox="0 0 332 426" style="enable-background:new 0 0 332 426;" xml:space="preserve">
<style type="text/css">
	.st0{stroke:#000000;stroke-miterlimit:10;}
	.st1{fill:#3C1E0E;stroke:#000000;stroke-miterlimit:10;}
	.st2{fill:#082034;stroke:#231F20;stroke-width:2;stroke-miterlimit:10;}
	.st3{fill:none;stroke:#182F51;stroke-width:2;stroke-miterlimit:10;}
	.st4{fill:#F6DACB;}
	.st5{fill:#FE9815;stroke:#231F20;stroke-width:2;stroke-miterlimit:10;}
	.st6{fill:#E27F13;stroke:#231F20;stroke-width:2;stroke-miterlimit:10;}
	.st7{fill:none;stroke:#231F20;stroke-width:3;stroke-linecap:round;stroke-miterlimit:10;}
	.st8{stroke:#231F20;stroke-linejoin:round;stroke-miterlimit:10;}
	.st9{fill:#FFFFFF;stroke:#231F20;stroke-miterlimit:10;}
	.st10{fill:#151515;stroke:#231F20;stroke-miterlimit:10;}
	.st11{fill:none;stroke:#231F20;stroke-miterlimit:10;}
	.st12{fill:none;stroke:#0C0D0D;stroke-linecap:round;stroke-miterlimit:10;}
	.st13{fill:#0B0B0B;}
	.st14{fill:none;stroke:#0B0B0B;stroke-linecap:round;stroke-miterlimit:10;}
	.st15{fill:#F6DACB;stroke:#000000;stroke-miterlimit:10;}
	.st16{fill:#FE9815;stroke:#000000;stroke-width:3;stroke-miterlimit:10;}
	.st17{fill:#F3F4F5;}
	.st18{fill:none;stroke:#0B0B0B;stroke-width:2;stroke-linecap:round;stroke-miterlimit:10;}
	.st19{fill:#181818;}
	.st20{fill:none;stroke:#231F20;stroke-linecap:round;stroke-miterlimit:10;}
	.st21{fill:none;stroke:#D7D7D7;stroke-width:2;stroke-linecap:round;stroke-miterlimit:10;}
</style>
<path class="st0" d="M72.9,715.8c0,0-2.6,2.5-3.3,7.8c-0.6,3.9,0.5,8,3.1,10.9c1.4,1.6,5,2.7,7.7,3c7.2,1,28.8-1.6,35.4-17.2
	s6.1-14.2,6.1-14.2s6,2.7,15.1-3c9.1-5.7,12.2-12.3,11.6-16.7c-0.6-4.3-3.8-10.3-3.8-10.3l-5.9,2.8l-6.7,7.5l-12.8,5.2l-15.8,8.4
	l-24.7,11.5L72.9,715.8z"/>
<path class="st1" d="M111.2,660.5c0,0-2.4,5.3-1.4,10.3c1.1,5-11,20.4-23.2,23.9s-14.9,23.8-13.3,28.9c1.2,4,5.3,10.2,23.8,3.1
	s21-14.4,23.6-19.2s20-8.9,24-18.7c4-9.8,1.6-16.2,0.4-23.9s-5.4-7.3-5.4-7.3S120.8,671.5,111.2,660.5z"/>
<path class="st0" d="M270.5,711.9c0,0,2.6,2.5,3.4,7.8c0.5,3.9-0.5,8-3.1,10.9c-1.4,1.6-5,2.7-7.7,3c-7.2,1-28.8-1.6-35.4-17.2
	c-6.6-15.7-6.1-14.2-6.1-14.2s-6,2.7-15.1-3s-12.2-12.3-11.6-16.7c0.6-4.3,3.8-10.3,3.8-10.3l5.9,2.8l6.7,7.5l12.8,5.2l15.8,8.4
	l24.7,11.5L270.5,711.9z"/>
<path class="st1" d="M232.1,656.5c0,0,2.4,5.3,1.4,10.3c-1.1,5,11,20.4,23.2,23.9c12.2,3.5,14.9,23.8,13.3,28.9
	c-1.2,4-5.3,10.2-23.8,3.1s-21-14.4-23.6-19.2s-20-8.9-24-18.7c-4-9.8-1.6-16.2-0.4-23.9s5.4-7.3,5.4-7.3S222.5,667.6,232.1,656.5z"
	/>
<path class="st2" d="M98,398.4c0,0,6.5,86.8,8.6,114.3s1.3,25.2,1.3,34.8c0,11.1,3.5,41,1.1,59.9s1.9,52.3,1.9,52.3
	s8.8,13.2,31.1-2.1l8.2-104.1l16.1-91.4c0,0,2.1-4.3,4.5-0.5c5.4,8.2,9.6,78.1,9.6,78.1l19.6,113.5c2,1.5,10.3,12,32.6,4.4
	l0.3-106.2c-0.2-1.5-0.1-2.7,0.1-4.2c0.1-1.2,0-4.3-1.4-10.8c-2.6-11.9-1.8-142.6-1.8-142.6l-54.6-16l-44.9,3.6L98,398.4z"/>
<path class="st3" d="M113.2,401.8c0,0-2.4,32.5-13.3,38.3"/>
<path class="st3" d="M210.4,401.8c0,0,7.6,32.5,18.5,38.3"/>
<polygon class="st4" points="151.2,137.1 127.5,157.2 132.9,187.5 136.8,200 180,198.6 196.4,194.2 197.6,168.6 191,148.3 
	174,143.1 "/>
<path class="st5" d="M116.1,178.4c0,0-32.7,8.4-34.7,11c0,0-7.7,0-7.7,5.4s3.1,16.1,6.4,23.5c3.3,7.4,16.8,41.6,15.8,51.1
	s-4.2,23.4-4.2,35.6s2.4,26.4,1.9,43c-0.5,16.6-10,18.9-5.9,31.4c4.1,12.5,8.4,13,8.4,13s-3.3,4.9,1.5,12.3c4.8,7.4,97,21.2,133.3,0
	c0,0,7.7-5.9,0-18.6c0,0,5.1-11.5,4.9-20.5c0,0,4.2-27.2,0-50.6c0,0,4.2-4.6,0-23.4c0,0-2.7-14.9-1.1-22.2
	c1.5-7.3,26.8-59,23.7-74.3c0,0-6.1-8.8-45.6-18.4l-39.1,5.6h-16.1L116.1,178.4z"/>
<path class="st2" d="M156.1,151.4c0,0-17.4,2.6-17.4,11.7s6.6,10.9,6.6,10.9s8.3,4.6,8.3,7.3s-20.6-0.9-20.6-0.9l-8.9-4.1
	c0,0-3.8-11.5-3.8-12.1s2.4-10.1,2.4-10.1l10.3-6l18.1-5c0,0,23.4,0,24,0.1s15.8,3.4,15.8,3.4l10.3,5.5l5.9,9.3l1.5,13.7l-8.6,5
	l-18.9-0.3l-2.6-0.5c0,0,12.3-6.5,13.5-9.8c1.3-3.3,4.7-12.1-7.3-16.5S156.1,151.4,156.1,151.4z"/>
<path class="st6" d="M99.9,391.9c0,0,94.2,16.5,127.5-2.7"/>
<polygon class="st2" points="157.6,185.1 166.2,199.1 173.6,185.2 173.8,182.2 155.1,182.2 "/>
<path class="st5" d="M155.1,133.4c0,0-34.5,1.4-38.3,26.9c0,0,4.2,4.3-1.2,11.6s-7.1,8-7.1,8s4.8,4.4,33.5,3.1
	c0,0,12.7,3.8,18.6,1.5c5.9-2.3,4.4-3.8-3.7-5.2s-22.2,2.9-30.9-14.7c0,0-2.8-5.5,15.4-12.6s41.9-5.6,54.1,2
	c12.3,7.7,11.7,17.4,2.7,20.7s-20.7,1-27.2,5.6s-0.6,5.9,2.5,4.9s14-2.3,23.9-1.7c10,0.6,22.8-2.1,22.8-7.3c0,0-7.3-6.1-7.5-18.2
	s-19.1-23.4-27.6-23.4C176.9,134.7,155.1,133.4,155.1,133.4z"/>
<path class="st4" d="M128.1,101.4c0,0-3.8,33.3,8.2,44c10,8.9,29.4,17.9,48.8,6.4c7.9-4.7,13.2-12.7,14.6-21.8
	c1.3-8.6,2-20.8-0.9-32.7c-5.5-21.6-18.2-26.4-18.2-26.4l-8.2-6.9l-10.5-3.5l-16.5-2.7l-3.6,19.8L128.1,101.4z"/>
<path class="st7" d="M170.2,96.4c0,0,8.6-8.8,22.2-4.4"/>
<path class="st7" d="M156.4,95.1c0,0-6.4-5.6-19.6-3.6"/>
<path class="st8" d="M129.9,94.2c0,0,3.3,45.4,18.4,45c0,0-0.4,7.1,4.2,6.4c4.6-0.8,4.2-4.7,4.2-4.7s9,3.1,14.3-0.5
	c0,0,0.5,4.5,3.7,4.1s4.5-2.8,4.2-5.5c0,0,16.2,0.6,19-25.4c2.8-26,7.3-33.1,7.3-33.1l-4.8,25.9c0,0,1.4,14.1,0.3,22.9
	s-11.9,18.6-22,29.8c-14.8,16.4-25.1,11.4-40.8-11.2c0,0-13.7-13.5-10-42.1L129.9,94.2z"/>
<path class="st9" d="M193.1,3.6"/>
<path class="st10" d="M151.1,68.8c0,0,6.5-3.3,18.4-1l-11.3-10.2l-10.5-6.1L146.2,65L151.1,68.8z"/>
<g id="Pagg">
	<path class="st2" d="M153,59.7c0,0,35.7,19.9,47.2,46.7c0,0,4.6-12.5,5.1-20.7s-5.4-22-5.4-22l-15.5-9.2h-8.7h-6.3h-6.6h-2.7
		L153,59.7z"/>
	<path class="st2" d="M156.4,54.6c0,0,36.3,10.7,48,36.7c0.1,0.3,0.6,0.3,0.7,0c1.4-3.7,6.6-18.2,4.1-28.4
		c-2.9-11.7-12.4-19.2-12.4-19.2l-13.7-1.2l-10.5,1l-7.2,3.4L156.4,54.6z"/>
	<path class="st2" d="M158.1,50.6c0,0,38.5-4.2,51.8,15.2c0.2,0.3,0.7,0.1,0.7-0.2c-0.1-4.7-0.6-20.8-2.1-23.7
		c-1.8-3.4-10.9-10.5-10.9-10.5h-11.1l-14.9,5.4l-8.8,5.2L158.1,50.6z"/>
	<path class="st2" d="M160.1,46.9c0,0,30.4-12.8,49.4-0.7c0.5,0.3,1.1,0,1-0.6c-0.2-3-1.2-10.5-5.7-18.2c-5.8-9.9-14.7-5.5-14.7-5.5
		l-7,2l-9.7,2.9l-10.7,9.4L160.1,46.9z"/>
	<path class="st2" d="M166.9,31.5c0,0,22.6-9,40.4-0.5c0.3,0.1,0.6-0.2,0.5-0.5c-2.2-3.4-9.4-14.3-16.4-17
		c-8.3-3.2-10.9,1.9-10.9,1.9l-4.2,2.4l-3.8,2.1L166.9,31.5z"/>
	<path class="st2" d="M178.9,6.7c0,0,2.9-0.3,5,0.8c1.9,1,8.9,4,12.5,8.1c0.2,0.2,0,0.6-0.3,0.6c-3.4,0-16.7,0.5-24.1,6.5
		C163.4,29.6,178.9,6.7,178.9,6.7z"/>
	<path class="st2" d="M160.1,4.8c0,0-10.7-5.9-28.6,8.7S106,54.8,113.6,72.7s25.3-18.1,25.3-18.1l21.2-23.2v-25V4.8z"/>
	<path class="st2" d="M128.2,106.4c0,0,42.9-56.4,53.1-99.8c0,0-6.1-5.2-24.4-3.5c0,0-29.7,55.5-45.8,64
		C111.1,67.1,110.8,85.2,128.2,106.4z"/>
</g>
<path class="st11" d="M170.7,94.2"/>
<path class="st8" d="M164.2,126.4c0,0-3.3-2.1-7.7,1c-4.5,3.1-13.5,7.9-15.3,3.5c-1.8-4.5-1.8-4.5-1.8-4.5s-1.7-0.4-1.6,4.1
	c0.1,4.6,5.2,9.1,11.4,5.1c6.2-4,10.6-0.3,13.6-2.8C165.7,130.2,164.2,126.4,164.2,126.4z"/>
<path class="st12" d="M167.9,110.7c0,0-0.2,4.8,1.5,7s-2.1,6.3-5.5,6.4c-3.4-0.1-7.3-4.2-5.5-6.4c1.7-2.2,1.5-7,1.5-7"/>
<ellipse class="st13" cx="180.4" cy="101.5" rx="3" ry="3.1"/>
<path class="st12" d="M178.9,105.1c0,0,5,0.2,7.7-2.4"/>
<path class="st12" d="M172.2,101.7c0,0,4.5-3.6,11.2-3.6s7,0.5,7,0.5"/>
<ellipse class="st13" cx="147.5" cy="101.5" rx="3" ry="3.1"/>
<path class="st12" d="M148.9,105.1c0,0-5,0.2-7.7-2.4"/>
<path class="st12" d="M155.6,101.7c0,0-4.5-3.6-11.2-3.6c-6.8,0-7,0.5-7,0.5"/>
<path class="st14" d="M154.5,135.5c0,0,2.9,3.2,9.7,3.2s8.8-3.2,8.8-3.2"/>
<path class="st15" d="M110.4,329.5l12.4,7.3l3.4,10.3l-8.3,8.2c0,0-1.4,1.9-2.6,2.7s-5.3-0.3-5.3-0.3l-5.1-2.5l-15.4-9.3l-2.2-7.1
	L110.4,329.5z"/>
<path class="st15" d="M220.8,327.4l-12.4,7.3L205,345l7.9,12.4c0,0,8.7,2.4,9.8,3.3s5.6,0.9,5.6,0.9l2.9-0.4l10.5-17.2l2.2-7.1
	L220.8,327.4z"/>
<path class="st16" d="M95.2,358.5c0,0,22.7-19.1,28.5-39.5c0,0,30.3-11.9,82.3,1.1c0,0,6.5,21.1,26,43.3"/>
<path class="st5" d="M96.2,252.5c0,0,0,0-1.9,5.7c-1.8,5.6-22.8,26.4-23.4,27c0,0,0,0,0,0c1.2,4.6-2.4,7.3-2.4,7.3
	c-0.4,0.4-0.9,0.6-1.5,0.7c-1.7,0.2-3.1,1.1-4.1,2.5l0,0l0,0c1.4,0.9,3,1.6,4.7,1.8c4.8,0.5,10,7.3,10.3,7.8c0,0,0,0,0,0l34.5,21.9
	l2.9,1.9l-22,22.9c0,0,0,0-0.1,0c0,0-0.1,0-0.1-0.1c-3.2-1.5-38.3-17.7-44.7-20.1c-5.2-2-23.7-13.4-35.3-20.2
	c-0.1,0-0.1-0.1-0.2-0.1c-13.3-8.1-7-19.6-6.6-20.3c0,0,0,0,0,0l6-8.6L49.1,230c0,0-1.9-8.9,3.5-11.5c5-2.4,16.2-16.9,18-19.1
	c0.1-0.1,0.1-0.1,0.1-0.2c0.1-0.1,0.1-0.1,0.1-0.1l3-4.3"/>
<path class="st5" d="M236.2,252.5c0,0,0,0,1.9,5.7c1.8,5.6,22.8,26.4,23.4,27c0,0,0,0,0,0c-1.2,4.6,2.4,7.3,2.4,7.3
	c0.4,0.4,1,0.6,1.5,0.7c1.6,0.2,3.1,1.1,4.1,2.5l0,0l0,0c-1.4,0.9-3,1.6-4.7,1.8c-4.8,0.5-10,7.3-10.4,7.8c0,0,0,0,0,0L220,327.1
	l-1.9,1.2c-0.5,0.3-0.6,1-0.2,1.5l21.2,22c0,0,0,0,0.1,0c0,0,0.1,0,0.1-0.1c3.2-1.5,38.3-17.7,44.7-20.1c5.2-2,23.7-13.4,35.4-20.2
	c0.1,0,0.1-0.1,0.2-0.1c13.3-8.1,7-19.6,6.6-20.3c0,0,0,0,0,0l-6-8.6L283.4,230c0,0,1.9-8.9-3.5-11.5c-5-2.4-16.2-16.9-18-19.1
	c0-0.1-0.1-0.1-0.1-0.2c0-0.1-0.1-0.1-0.1-0.1l-3-4.3"/>
<path class="st8" d="M164.6,126.4c0,0,3.3-2.1,7.7,1c4.5,3.1,13.5,7.9,15.3,3.5c1.8-4.5,1.8-4.3,1.8-4.3s1.7-0.6,1.6,4
	c-0.1,4.6-5.2,9.1-11.4,5.1c-6.2-4-10.6-0.3-13.6-2.8S164.6,126.4,164.6,126.4z"/>
<ellipse class="st17" cx="146.2" cy="100.4" rx="0.8" ry="0.6"/>
<ellipse class="st17" cx="179.2" cy="100.4" rx="0.8" ry="0.6"/>
<path class="st14" d="M152.5,135.5c0,0,8.1-0.6,10,0c0,0,1.4,0.9,2.5,0c0,0,5.5-0.7,9.5-0.3"/>
<path class="st18" d="M73.8,195.7c0,0,0.8,8.4,7.1,16c6.3,7.7,8.2,14.9,8.2,14.9"/>
<path class="st6" d="M258.4,194.8c0,0,2.3,14-4.6,22s-9.6,9.1-11.7,17.8"/>
<g>
	
		<ellipse transform="matrix(8.829946e-02 -0.9961 0.9961 8.829946e-02 -41.4968 319.1187)" class="st19" cx="153.6" cy="182.2" rx="1.2" ry="3.9"/>
	
		<ellipse transform="matrix(0.9961 -8.829946e-02 8.829946e-02 0.9961 -15.2985 16.5121)" class="st19" cx="179" cy="181.2" rx="3.9" ry="1.2"/>
	<g>
		<line class="st20" x1="153.8" y1="240.8" x2="152.1" y2="245.4"/>
		<line class="st20" x1="178.7" y1="239.6" x2="179.8" y2="244.4"/>
		<path class="st21" d="M153.6,182.6c0,0-3.4,2.3-0.2,10.1s2,7.6,2,12.9c0.1,5.4-4.6,8.4-3,14.8s3.8,9.5,1.4,20.4"/>
		<path class="st21" d="M178.9,181.6c0,0,3.4,2.3,0.2,10.1c-3.2,7.8-2,7.6-2,12.9c-0.1,5.4,4.6,8.4,3,14.8s-3.8,9.5-1.4,20.4"/>
	</g>
</g>
</svg>
