<?xml version="1.0" encoding="utf-8"?>
<!-- Generator: Adobe Illustrator 26.2.1, SVG Export Plug-In . SVG Version: 6.00 Build 0)  -->
<svg version="1.1" id="Layer_1" xmlns="http://www.w3.org/2000/svg" xmlns:xlink="http://www.w3.org/1999/xlink" x="0px" y="0px"
	 width="308.7px" height="107.5px" viewBox="0 0 308.7 107.5" style="enable-background:new 0 0 308.7 107.5;" xml:space="preserve"
	>
<style type="text/css">
	.st0{fill:#FE9815;}
</style>
<path class="st0" d="M92,101.9c-4.4,0.3-8.4,0.6-12.3,0.8c-7,0.4-14,0.8-21,1.2c-0.9,0-2.1,0-2.7-0.6c-5.7-5.1-12.8-7-19.8-9.3
	c-10.9-3.6-21.4-7.9-30.5-15.1c-0.9-0.7-1.8-1.5-2.9-2.4c18.3-25.2,41.4-44.2,69.5-57.4C81,33.9,89.4,48.6,97.8,63.3
	c0.2-0.1,0.4-0.2,0.6-0.3c-4-16.5-7.9-32.9-11.9-49.7c3-1.1,5.6-2.1,8.3-2.9c14.4-4.3,29.1-7.2,44.2-8c10.8-0.6,21.6-0.5,32.3,0.8
	c0.6,0.1,1.5,1.1,1.6,1.7c0.1,9.9,0.1,19.7,0,29.6c0,6.2-0.3,12.4-0.4,18.7c-0.2,15-0.4,30.1-0.5,45.1c0,2.2-0.8,2.6-2.7,2.6
	c-10.6-0.1-21.1-0.1-31.7,0c-2,0-2.2-1.1-2.5-2.5c-3.2-11.5-6.4-23.1-9.7-34.6c-0.2-0.6-0.5-1.1-0.7-1.6c-0.2,0-0.4,0.1-0.7,0.1
	c0.3,2.6,0.6,5.1,0.8,7.7c1,9.2,2,18.3,2.9,27.5c0.3,3.4,0.1,3.4-3.3,3.5c-7.9,0.2-15.9,0.6-23.8,0.8c-0.9,0-2.3-0.8-2.8-1.6
	C91.7,89.9,83,82,74.8,73.6c-0.2-0.2-0.4-0.2-0.9-0.2C79.9,82.7,87.6,91,92,101.9z"/>
<path class="st0" d="M237.3,71.2c1,0.8,2.1,1.6,3.1,2.4C248,78.8,255.6,84,263,89.3c1.4,1,2.5,2.4,3.5,3.8c1.8,2.5,1.1,4-1.9,4.5
	c-3.6,0.6-7.2,1.1-10.8,1.6c-10.1,1.2-20.2,2.7-30.4,3.3c-8.8,0.5-17.6,0.1-26.4-0.3c-6.4-0.4-12.9-1.5-19.3-2.3
	c-0.7-0.1-1.5-0.3-2.8-0.6c4.6-10.2,9-20,13.6-30.1c9.7,8.7,20.8,13,32.7,15.1c0.2-0.4,0.5-0.8,0.7-1.2c-1-0.6-1.9-1.5-2.9-1.8
	c-4.5-1.5-9.1-2.7-13.5-4.4c-5.2-2-9.8-4.8-12.9-9.6c-3.6-5.7-3.2-11.8-1.8-18c3.9-16.5,17.7-26.5,33.3-27.6
	c15.5-1.1,28.6,4.6,40.4,14c14.4,11.5,25,26.1,33.7,42.2c2.4,4.5,4.9,8.9,7.5,13.8c-3.7-0.2-6.8-0.6-10-0.5
	c-7.7,0.1-15.4,0.4-23.1,0.4c-1.4,0-3-0.6-4.1-1.6c-8.1-7.1-16.6-13.5-26.4-18.2c-1.4-0.7-2.9-1-4.4-1.5
	C237.7,70.5,237.5,70.9,237.3,71.2z"/>
</svg>
