<?xml version="1.0" encoding="utf-8"?>
<!-- Generator: Adobe Illustrator 26.2.1, SVG Export Plug-In . SVG Version: 6.00 Build 0)  -->
<svg version="1.1" id="Layer_1" xmlns="http://www.w3.org/2000/svg" xmlns:xlink="http://www.w3.org/1999/xlink" x="0px" y="0px"
	 width="332px" height="744px" viewBox="0 0 332 744" style="enable-background:new 0 0 332 744;" xml:space="preserve">
<style type="text/css">
	.st0{stroke:#000000;stroke-miterlimit:10;}
	.st1{fill:#3C1E0E;stroke:#000000;stroke-miterlimit:10;}
	.st2{fill:#082034;stroke:#231F20;stroke-width:2;stroke-miterlimit:10;}
	.st3{fill:none;stroke:#182F51;stroke-width:2;stroke-miterlimit:10;}
	.st4{fill:#F6DACB;}
	.st5{fill:#EE4223;stroke:#231F20;stroke-width:2;stroke-miterlimit:10;}
	.st6{fill:none;stroke:#231F20;stroke-width:3;stroke-linecap:round;stroke-miterlimit:10;}
	.st7{stroke:#231F20;stroke-linejoin:round;stroke-miterlimit:10;}
	.st8{fill:#FFFFFF;stroke:#231F20;stroke-miterlimit:10;}
	.st9{fill:#151515;stroke:#231F20;stroke-miterlimit:10;}
	.st10{fill:none;stroke:#231F20;stroke-miterlimit:10;}
	.st11{fill:none;stroke:#0C0D0D;stroke-linecap:round;stroke-miterlimit:10;}
	.st12{fill:#0B0B0B;}
	.st13{fill:none;stroke:#0B0B0B;stroke-linecap:round;stroke-miterlimit:10;}
	.st14{fill:#F6DACB;stroke:#000000;stroke-miterlimit:10;}
	.st15{fill:#EE4223;stroke:#000000;stroke-width:3;stroke-miterlimit:10;}
	.st16{fill:#F3F4F5;}
	.st17{fill:none;stroke:#0B0B0B;stroke-width:2;stroke-linecap:round;stroke-miterlimit:10;}
	.st18{fill:#181818;}
	.st19{fill:none;stroke:#231F20;stroke-linecap:round;stroke-miterlimit:10;}
	.st20{fill:none;stroke:#D7D7D7;stroke-width:2;stroke-linecap:round;stroke-miterlimit:10;}
</style>
<path class="st0" d="M72.87,715.84c0,0-2.6,2.52-3.35,7.82c-0.55,3.92,0.47,7.97,3.14,10.89c1.44,1.57,5.03,2.66,7.74,3.01
	c7.22,0.95,28.81-1.56,35.36-17.23s6.05-14.15,6.05-14.15s6.02,2.65,15.09-3.02c9.07-5.67,12.18-12.33,11.61-16.65
	c-0.58-4.32-3.84-10.26-3.84-10.26l-5.92,2.82l-6.69,7.45l-12.76,5.19l-15.79,8.38l-24.69,11.46L72.87,715.84z"/>
<path class="st1" d="M111.22,660.45c0,0-2.41,5.32-1.36,10.35c1.06,5.04-10.99,20.36-23.21,23.9s-14.87,23.77-13.33,28.87
	c1.2,3.97,5.27,10.24,23.84,3.12s20.99-14.4,23.58-19.2s20.02-8.89,23.99-18.66c3.97-9.77,1.63-16.2,0.44-23.94
	s-5.41-7.32-5.41-7.32S120.79,671.5,111.22,660.45z"/>
<path class="st0" d="M270.46,711.94c0,0,2.6,2.52,3.35,7.82c0.55,3.92-0.47,7.97-3.14,10.89c-1.44,1.57-5.03,2.66-7.74,3.01
	c-7.22,0.95-28.81-1.56-35.36-17.23c-6.55-15.68-6.05-14.15-6.05-14.15s-6.02,2.65-15.09-3.02s-12.18-12.33-11.61-16.65
	c0.58-4.32,3.84-10.26,3.84-10.26l5.92,2.82l6.69,7.45l12.76,5.19l15.79,8.38l24.69,11.46L270.46,711.94z"/>
<path class="st1" d="M232.11,656.55c0,0,2.41,5.32,1.36,10.35c-1.06,5.04,10.99,20.36,23.21,23.9
	c12.22,3.54,14.87,23.77,13.33,28.87c-1.2,3.97-5.27,10.24-23.84,3.12c-18.57-7.12-20.99-14.4-23.58-19.2
	c-2.59-4.8-20.02-8.89-23.99-18.66c-3.97-9.77-1.63-16.2-0.44-23.94s5.41-7.32,5.41-7.32S222.53,667.6,232.11,656.55z"/>
<path class="st2" d="M98.01,398.44c0,0,6.51,86.75,8.55,114.32c2.04,27.57,1.33,25.21,1.33,34.75c0,11.11,3.48,41.03,1.07,59.93
	s1.87,52.27,1.87,52.27s8.83,13.25,31.07-2.14l8.19-104.09l16.15-91.4c0,0,2.05-4.34,4.54-0.51c5.35,8.24,9.58,78.13,9.58,78.13
	l19.59,113.47c1.99,1.49,10.31,12.03,32.55,4.41l0.32-106.23c-0.16-1.47-0.09-2.72,0.07-4.2c0.13-1.24-0.02-4.31-1.4-10.75
	c-2.55-11.88-1.75-142.59-1.75-142.59l-54.64-15.99l-44.94,3.57L98.01,398.44z"/>
<path class="st3" d="M113.2,401.82c0,0-2.42,32.55-13.27,38.3"/>
<path class="st3" d="M210.45,401.82c0,0,7.62,32.55,18.47,38.3"/>
<polygon class="st4" points="151.18,137.11 127.5,157.23 132.87,187.54 136.79,199.99 179.98,198.65 196.45,194.24 197.6,168.55 
	190.96,148.29 174.04,143.12 "/>
<path class="st5" d="M116.14,178.41c0,0-32.68,8.43-34.72,10.98c0,0-7.66,0-7.66,5.36c0,5.36,3.06,16.09,6.38,23.49
	c3.32,7.4,16.85,41.62,15.83,51.06s-4.21,23.36-4.21,35.62s2.43,26.43,1.92,43.02c-0.51,16.6-9.96,18.89-5.87,31.4
	c4.09,12.51,8.43,13.02,8.43,13.02s-3.32,4.85,1.53,12.26c4.85,7.4,97.02,21.19,133.28,0c0,0,7.66-5.87,0-18.64
	c0,0,5.11-11.46,4.85-20.54c0,0,4.23-27.21,0.01-50.57c0,0,4.2-4.6-0.01-23.36c0,0-2.68-14.94-1.15-22.21
	c1.53-7.28,26.81-58.98,23.74-74.3c0,0-6.13-8.81-45.57-18.38l-39.06,5.59h-16.09L116.14,178.41z"/>
<path class="st2" d="M156.1,151.35c0,0-17.36,2.55-17.36,11.74c0,9.19,6.64,10.85,6.64,10.85s8.3,4.6,8.3,7.28
	s-20.55-0.89-20.55-0.89l-8.94-4.09c0,0-3.83-11.49-3.83-12.13c0-0.64,2.43-10.09,2.43-10.09l10.34-6l18.13-4.98
	c0,0,23.36,0,24,0.13c0.64,0.13,15.83,3.45,15.83,3.45l10.34,5.49l5.87,9.32l1.53,13.66l-8.55,4.98l-18.89-0.26l-2.55-0.51
	c0,0,12.26-6.51,13.53-9.83c1.28-3.32,4.72-12.13-7.28-16.47S156.1,151.35,156.1,151.35z"/>
<path class="st5" d="M99.93,391.86c0,0,94.21,16.47,127.53-2.68"/>
<polygon class="st2" points="157.56,185.13 166.25,199.07 173.65,185.21 173.84,182.22 155.09,182.22 "/>
<path class="st5" d="M155.08,133.35c0,0-34.47,1.42-38.3,26.94c0,0,4.21,4.27-1.15,11.55s-7.09,8.04-7.09,8.04s4.79,4.4,33.51,3.06
	c0,0,12.72,3.83,18.62,1.53c5.89-2.3,4.36-3.83-3.68-5.17s-22.21,2.94-30.89-14.68c0,0-2.81-5.49,15.45-12.64s41.87-5.62,54.13,2.04
	c12.26,7.66,11.68,17.43,2.68,20.68s-20.68,0.96-27.19,5.55s-0.57,5.87,2.49,4.95s13.98-2.27,23.94-1.69
	c9.96,0.57,22.79-2.11,22.79-7.28c0,0-7.28-6.13-7.47-18.19c-0.19-12.06-19.15-23.36-27.57-23.36
	C176.91,134.69,155.08,133.35,155.08,133.35z"/>
<path class="st4" d="M128.08,101.37c0,0-3.83,33.32,8.23,44.04c9.98,8.87,29.41,17.88,48.83,6.4c7.91-4.67,13.2-12.73,14.55-21.81
	c1.29-8.62,2.04-20.84-0.95-32.66c-5.46-21.55-18.19-26.43-18.19-26.43l-8.23-6.89l-10.53-3.45l-16.47-2.68l-3.64,19.79
	L128.08,101.37z"/>
<path class="st6" d="M170.21,96.39c0,0,8.62-8.81,22.21-4.4"/>
<path class="st6" d="M156.42,95.05c0,0-6.41-5.59-19.63-3.56"/>
<path class="st7" d="M129.95,94.19c0,0,3.32,45.41,18.38,45.03c0,0-0.38,7.15,4.21,6.38c4.6-0.77,4.21-4.72,4.21-4.72
	s9,3.06,14.27-0.51c0,0,0.54,4.47,3.73,4.09c3.19-0.38,4.47-2.81,4.21-5.49c0,0,16.21,0.64,19.02-25.4
	c2.81-26.04,7.33-33.06,7.33-33.06l-4.77,25.91c0,0,1.43,14.13,0.28,22.94c-1.15,8.81-11.91,18.59-21.98,29.78
	c-14.76,16.41-25.09,11.36-40.76-11.23c0,0-13.7-13.46-10.02-42.1L129.95,94.19z"/>
<path class="st8" d="M193.06,3.62"/>
<path class="st9" d="M151.06,68.82c0,0,6.46-3.26,18.36-0.96l-11.27-10.15l-10.53-6.13l-1.4,13.4L151.06,68.82z"/>
<g id="Pagg">
	<path class="st2" d="M152.97,59.69c0,0,35.74,19.91,47.23,46.72c0,0,4.6-12.51,5.11-20.68s-5.36-21.96-5.36-21.96l-15.54-9.19
		h-8.71h-6.28h-6.63h-2.66L152.97,59.69z"/>
	<path class="st2" d="M156.42,54.59c0,0,36.34,10.73,48.01,36.66c0.15,0.32,0.6,0.32,0.73-0.01c1.42-3.68,6.61-18.2,4.09-28.36
		c-2.91-11.72-12.36-19.15-12.36-19.15l-13.72-1.15l-10.48,0.96l-7.17,3.38L156.42,54.59z"/>
	<path class="st2" d="M158.14,50.63c0,0,38.54-4.25,51.83,15.19c0.21,0.3,0.68,0.14,0.67-0.22c-0.11-4.73-0.59-20.81-2.14-23.67
		c-1.82-3.36-10.91-10.45-10.91-10.45h-11.11l-14.94,5.36l-8.77,5.17L158.14,50.63z"/>
	<path class="st2" d="M160.12,46.92c0,0,30.45-12.77,49.44-0.74c0.47,0.3,1.08-0.05,1.04-0.61c-0.23-2.98-1.25-10.48-5.74-18.17
		c-5.79-9.91-14.74-5.47-14.74-5.47l-6.97,2.02l-9.69,2.92l-10.68,9.38L160.12,46.92z"/>
	<path class="st2" d="M166.95,31.48c0,0,22.61-9.01,40.45-0.55c0.32,0.15,0.65-0.2,0.46-0.5c-2.16-3.43-9.4-14.27-16.4-16.95
		c-8.34-3.2-10.91,1.85-10.91,1.85l-4.21,2.37l-3.83,2.11L166.95,31.48z"/>
	<path class="st2" d="M178.89,6.71c0,0,2.94-0.26,4.98,0.77c1.94,0.97,8.85,4.02,12.49,8.05c0.22,0.24,0.04,0.62-0.28,0.63
		c-3.41,0.03-16.67,0.54-24.08,6.51C163.44,29.56,178.89,6.71,178.89,6.71z"/>
	<path class="st2" d="M160.12,4.8c0,0-10.72-5.87-28.6,8.68s-25.53,41.36-17.87,59.23s25.28-18.12,25.28-18.12l21.19-23.24V6.33V4.8
		z"/>
	<path class="st2" d="M128.21,106.41c0,0,42.89-56.43,53.11-99.83c0,0-6.13-5.23-24.38-3.45c0,0-29.74,55.53-45.83,63.96
		C111.1,67.09,110.85,85.22,128.21,106.41z"/>
</g>
<path class="st10" d="M170.69,94.19"/>
<path class="st7" d="M164.16,126.39c0,0-3.27-2.11-7.74,0.96c-4.47,3.06-13.47,7.91-15.26,3.45c-1.79-4.47-1.79-4.47-1.79-4.47
	s-1.72-0.45-1.6,4.15c0.13,4.6,5.23,9.06,11.43,5.11c6.19-3.96,10.62-0.26,13.57-2.81C165.74,130.22,164.16,126.39,164.16,126.39z"
	/>
<path class="st11" d="M167.94,110.71c0,0-0.24,4.79,1.5,6.99s-2.14,6.32-5.54,6.41c-3.4-0.1-7.28-4.21-5.54-6.41
	c1.74-2.2,1.5-6.99,1.5-6.99"/>
<ellipse class="st12" cx="180.37" cy="101.52" rx="3.02" ry="3.1"/>
<path class="st11" d="M178.92,105.11c0,0,4.98,0.19,7.66-2.43"/>
<path class="st11" d="M172.22,101.67c0,0,4.47-3.57,11.23-3.57s6.96,0.51,6.96,0.51"/>
<ellipse class="st12" cx="147.48" cy="101.52" rx="3.02" ry="3.1"/>
<path class="st11" d="M148.94,105.11c0,0-4.98,0.19-7.66-2.43"/>
<path class="st11" d="M155.64,101.67c0,0-4.47-3.57-11.23-3.57c-6.77,0-6.96,0.51-6.96,0.51"/>
<path class="st13" d="M154.47,135.53c0,0,2.92,3.16,9.69,3.16c6.77,0,8.78-3.16,8.78-3.16"/>
<path class="st14" d="M110.39,329.5l12.38,7.28l3.45,10.34l-8.3,8.23c0,0-1.45,1.85-2.6,2.74s-5.31-0.26-5.31-0.26l-5.11-2.49
	l-15.45-9.26l-2.17-7.15L110.39,329.5z"/>
<path class="st14" d="M220.82,327.39l-12.38,7.28l-3.45,10.34l7.91,12.38c0,0,8.68,2.43,9.83,3.32c1.15,0.89,5.62,0.89,5.62,0.89
	l2.93-0.38l10.47-17.23l2.17-7.15L220.82,327.39z"/>
<path class="st15" d="M95.2,358.54c0,0,22.73-19.15,28.47-39.45c0,0,30.26-11.87,82.34,1.15c0,0,6.51,21.06,26.04,43.28"/>
<path class="st5" d="M96.22,252.47c0,0,0,0-1.87,5.73c-1.84,5.63-22.75,26.38-23.4,27.02c-0.01,0.01-0.02,0.02-0.02,0.02
	c1.19,4.62-2.4,7.3-2.4,7.3c-0.4,0.4-0.95,0.58-1.51,0.66c-1.65,0.22-3.12,1.14-4.13,2.45h0h0c1.42,0.9,3,1.58,4.67,1.76
	c4.82,0.53,10.02,7.33,10.35,7.78c0.01,0.01,0.02,0.02,0.02,0.02l34.47,21.92l2.93,1.86l-21.96,22.87c0,0-0.04-0.02-0.11-0.05
	c-0.04-0.02-0.08-0.04-0.13-0.06c-3.24-1.5-38.32-17.71-44.65-20.14c-5.19-2-23.66-13.38-35.35-20.22c-0.07-0.04-0.14-0.08-0.2-0.12
	c-13.33-8.07-7.04-19.59-6.62-20.31c0.01-0.03,0.02-0.04,0.02-0.04l6.02-8.58l36.72-52.37c0,0-1.86-8.92,3.5-11.47
	c4.95-2.35,16.24-16.92,17.95-19.13c0.05-0.08,0.1-0.14,0.13-0.18c0.05-0.07,0.08-0.11,0.08-0.11l3.03-4.32"/>
<path class="st5" d="M236.2,252.47c0,0,0,0,1.87,5.73c1.84,5.63,22.75,26.38,23.4,27.02c0.01,0.01,0.02,0.02,0.02,0.02
	c-1.19,4.62,2.4,7.3,2.4,7.3c0.4,0.4,0.95,0.58,1.51,0.66c1.65,0.22,3.12,1.14,4.13,2.45l0,0l0,0c-1.42,0.9-3,1.58-4.67,1.76
	c-4.82,0.53-10.02,7.33-10.35,7.78c-0.01,0.01-0.02,0.02-0.02,0.02l-34.47,21.92l-1.95,1.24c-0.5,0.32-0.59,1.02-0.18,1.45
	l21.16,22.04c0,0,0.04-0.02,0.11-0.05c0.04-0.02,0.08-0.04,0.13-0.06c3.24-1.5,38.32-17.71,44.65-20.14
	c5.19-2,23.66-13.38,35.35-20.22c0.07-0.04,0.14-0.08,0.2-0.12c13.33-8.07,7.04-19.59,6.62-20.31c-0.01-0.03-0.02-0.04-0.02-0.04
	l-6.02-8.58l-36.72-52.37c0,0,1.86-8.92-3.5-11.47c-4.95-2.35-16.24-16.92-17.95-19.13c-0.05-0.08-0.1-0.14-0.13-0.18
	c-0.05-0.07-0.08-0.11-0.08-0.11l-3.03-4.32"/>
<path class="st7" d="M164.58,126.39c0,0,3.27-2.11,7.74,0.96c4.47,3.06,13.47,7.91,15.26,3.45c1.79-4.47,1.8-4.33,1.8-4.33
	s1.71-0.59,1.58,4.01c-0.13,4.6-5.23,9.06-11.43,5.11c-6.19-3.96-10.62-0.26-13.57-2.81S164.58,126.39,164.58,126.39z"/>
<ellipse class="st16" cx="146.21" cy="100.41" rx="0.81" ry="0.56"/>
<ellipse class="st16" cx="179.16" cy="100.41" rx="0.81" ry="0.56"/>
<path class="st13" d="M152.46,135.53c0,0,8.11-0.6,10.01,0c0,0,1.39,0.89,2.49,0c0,0,5.51-0.74,9.53-0.26"/>
<path class="st17" d="M73.76,195.67c0,0,0.77,8.38,7.09,16.04c6.32,7.66,8.23,14.94,8.23,14.94"/>
<path class="st5" d="M258.37,194.76c0,0,2.3,13.98-4.6,22.02s-9.57,9.15-11.68,17.79"/>
<g>
	
		<ellipse transform="matrix(0.0883 -0.9961 0.9961 0.0883 -41.4887 319.1094)" class="st18" cx="153.57" cy="182.22" rx="1.15" ry="3.93"/>
	
		<ellipse transform="matrix(0.9961 -0.0883 0.0883 0.9961 -15.2938 16.5052)" class="st18" cx="178.98" cy="181.18" rx="3.93" ry="1.15"/>
	<g>
		<line class="st19" x1="153.83" y1="240.84" x2="152.05" y2="245.43"/>
		<line class="st19" x1="178.72" y1="239.58" x2="179.83" y2="244.38"/>
		<path class="st20" d="M153.64,182.65c0,0-3.41,2.29-0.23,10.07s1.96,7.57,2.01,12.92c0.05,5.36-4.63,8.38-2.97,14.75
			s3.76,9.48,1.39,20.45"/>
		<path class="st20" d="M178.91,181.6c0,0,3.41,2.29,0.23,10.07c-3.18,7.78-1.96,7.57-2.01,12.92c-0.05,5.36,4.63,8.38,2.97,14.75
			s-3.76,9.48-1.39,20.45"/>
	</g>
</g>
</svg>
