<?xml version="1.0" encoding="utf-8"?>
<!-- Generator: Adobe Illustrator 26.2.1, SVG Export Plug-In . SVG Version: 6.00 Build 0)  -->
<svg version="1.1" id="Layer_1" xmlns="http://www.w3.org/2000/svg" xmlns:xlink="http://www.w3.org/1999/xlink" x="0px" y="0px"
	 width="840.2px" height="23.3px" viewBox="0 0 840.2 23.3" style="enable-background:new 0 0 840.2 23.3;" xml:space="preserve">
<style type="text/css">
	.st0{fill:#F8981F;}
</style>
<g>
	<path class="st0" d="M825,22.3c-42.2,0-63.6-3.2-84.3-6.2c-20.1-3-39.1-5.8-78.2-5.8c-39.1,0-58.1,2.8-78.2,5.8
		c-20.7,3.1-42.1,6.2-84.3,6.2s-63.6-3.2-84.3-6.2c-20.1-3-39.1-5.8-78.2-5.8c-39.1,0-58.1,2.8-78.2,5.8
		c-20.7,3.1-42.1,6.2-84.3,6.2c-42.2,0-63.6-3.2-84.3-6.2c-20.1-3-39.1-5.8-78.2-5.8c-5.5,0-9.9-2-9.9-4.5s4.4-4.5,9.9-4.5
		c42.2,0,63.6,3.2,84.3,6.2c20.1,3,39.1,5.8,78.2,5.8c39.1,0,58.1-2.8,78.2-5.8c20.7-3.1,42.1-6.2,84.3-6.2
		c42.2,0,63.6,3.2,84.3,6.2c20.1,3,39.1,5.8,78.2,5.8c39.1,0,58.1-2.8,78.2-5.8c20.7-3.1,42.1-6.2,84.3-6.2s63.6,3.2,84.3,6.2
		c20.1,3,39.1,5.8,78.2,5.8c5.5,0,9.9,2,9.9,4.5S830.4,22.3,825,22.3z"/>
</g>
</svg>
